<svg width="32" height="32" viewBox="0 0 32 32" fill="none" xmlns="http://www.w3.org/2000/svg">
<g clip-path="url(#clip0_171_32973)">
<path d="M26.4214 7.18528C26.9845 7.33072 27.4991 7.62276 27.9127 8.03169C28.3263 8.44061 28.6242 8.95182 28.776 9.51328C29.164 11.6439 29.3494 13.8066 29.332 15.9706C29.3457 18.1139 29.1596 20.2539 28.776 22.3626C28.6345 22.9362 28.3412 23.4611 27.9269 23.8822C27.5126 24.3033 26.9925 24.6051 26.4214 24.7559C22.964 25.1799 19.4827 25.3693 16 25.3279C12.5174 25.3705 9.03577 25.1794 5.57869 24.7559C5.01553 24.6105 4.50097 24.3185 4.08736 23.9095C3.67375 23.5006 3.37586 22.9894 3.22402 22.4279C2.8365 20.2977 2.65035 18.1357 2.66802 15.9706C2.65428 13.8277 2.84042 11.6883 3.22402 9.57995C3.36532 9.00614 3.65854 8.48098 4.07286 8.05961C4.48719 7.63824 5.00734 7.33623 5.57869 7.18528C9.03735 6.78528 12.5187 6.61595 16 6.67995C19.4812 6.61526 22.9628 6.78408 26.4214 7.18528ZM13.2667 12.0613V19.8799L20.244 15.9706L13.2667 12.0613Z" fill="white"/>
</g>
<defs>
<clipPath id="clip0_171_32973">
<rect width="32" height="32" fill="white"/>
</clipPath>
</defs>
</svg>
