<svg width="26" height="31" viewBox="0 0 26 31" fill="none" xmlns="http://www.w3.org/2000/svg">
<path d="M4.16256 4.10884C6.50538 1.80245 9.68346 0.503727 13 0.5C16.3165 0.503727 19.4946 1.80245 21.8374 4.10884C24.1801 6.41508 25.4964 9.54032 25.5 12.7984C25.4998 14.3631 24.8641 16.1211 23.8396 17.9251C22.8192 19.7218 21.4389 21.5197 20.0088 23.1528C17.1499 26.4174 14.1339 28.9766 13.5197 29.4899C13.5195 29.4901 13.5193 29.4903 13.5191 29.4904L13 29.9224L12.4809 29.4904C12.4807 29.4903 12.4805 29.4901 12.4803 29.4899C11.8661 28.9766 8.85005 26.4174 5.99118 23.1528C4.56108 21.5197 3.18078 19.7218 2.16041 17.9251C1.13583 16.121 0.500078 14.3629 0.5 12.7982C0.503706 9.54015 1.81995 6.41502 4.16256 4.10884ZM13 19.6968H13.0006C14.8538 19.6946 16.6319 18.969 17.9447 17.6767C19.2577 16.3841 19.9978 14.6299 20 12.7985V12.7979C20 11.4316 19.5884 10.0967 18.8183 8.96201C18.0482 7.82739 16.9544 6.94424 15.6762 6.42303C14.3981 5.90185 12.9922 5.76561 11.6358 6.0312C10.2795 6.29681 9.03249 6.95259 8.05303 7.91682C7.07349 8.88113 6.40551 10.1107 6.1348 11.4505C5.86408 12.7903 6.0031 14.179 6.53392 15.4405C7.0647 16.702 7.963 17.779 9.11402 18.5361C10.2649 19.2932 11.6173 19.6968 13 19.6968Z" fill="#FFB800" stroke="#1A5694"/>
<path d="M16.4 12.7979C16.4 14.6348 14.8852 16.1372 13 16.1372C11.1148 16.1372 9.59998 14.6348 9.59998 12.7979C9.59998 10.9609 11.1148 9.4585 13 9.4585C14.8852 9.4585 16.4 10.9609 16.4 12.7979Z" fill="#FFB800" stroke="#1A5694"/>
</svg>
